<?xml version="1.0" encoding="utf-8"?>
<!-- Generator: Adobe Illustrator 26.0.2, SVG Export Plug-In . SVG Version: 6.00 Build 0)  -->
<svg version="1.1" id="Ebene_1" xmlns="http://www.w3.org/2000/svg" xmlns:xlink="http://www.w3.org/1999/xlink" x="0px" y="0px"
	 viewBox="0 0 500 212" style="enable-background:new 0 0 500 212;" xml:space="preserve">
<style type="text/css">
	.st0{fill:#71C0E9;}
	.st1{fill:#36A9E1;}
	.st2{fill:#FFFFFF;}
	.st3{fill:#424241;}
	.st4{fill:#454444;}
</style>
<path class="st0" d="M106,0C47.55,0,0,47.55,0,106s47.55,106,106,106s106-47.55,106-106S164.45,0,106,0z"/>
<circle class="st1" cx="106" cy="106" r="90.89"/>
<path class="st2" d="M106,15.11c-50.12,0-90.89,40.78-90.89,90.89s40.78,90.89,90.89,90.89c4.12,0,7.46-3.34,7.46-7.46V60.15
	c22.08,3.58,38.99,22.77,38.99,45.85c0,4.12,3.34,7.46,7.46,7.46c4.12,0,7.46-3.34,7.46-7.46c0-33.85-27.54-61.38-61.38-61.38
	c-33.85,0-61.38,27.54-61.38,61.38c0,4.12,3.34,7.46,7.46,7.46s7.46-3.34,7.46-7.46c0-23.08,16.91-42.27,38.99-45.85V181.6
	c-38.4-3.76-68.51-36.23-68.51-75.6c0-41.89,34.08-75.97,75.97-75.97s75.97,34.08,75.97,75.97c0,4.12,3.34,7.46,7.46,7.46
	s7.46-3.34,7.46-7.46C196.89,55.88,156.12,15.11,106,15.11z"/>
<g>
	<path class="st3" d="M324.92,76.87c-2.89,0-5.64,0.56-8.2,1.53V47.18c0-4.13-3.35-7.47-7.47-7.47c-4.13,0-7.47,3.35-7.47,7.47
		v125.2c0,4.13,3.35,7.47,7.47,7.47c4.13,0,7.47-3.35,7.47-7.47v-72.36c0-4.52,3.68-8.2,8.2-8.2c4.52,0,8.2,3.68,8.2,8.2v72.36
		c0,4.13,3.35,7.47,7.47,7.47c4.13,0,7.47-3.35,7.47-7.47v-72.36C348.06,87.26,337.68,76.87,324.92,76.87z"/>
	<path class="st3" d="M436.91,76.87c-4.13,0-7.47,3.35-7.47,7.47v72.36c0,4.52-3.68,8.2-8.2,8.2s-8.2-3.68-8.2-8.2V84.35
		c0-4.13-3.35-7.47-7.47-7.47c-4.13,0-7.47,3.35-7.47,7.47v72.36c0,12.76,10.38,23.14,23.14,23.14c12.76,0,23.14-10.38,23.14-23.14
		V84.35C444.38,80.22,441.04,76.87,436.91,76.87z"/>
	<path class="st4" d="M470.02,127.02"/>
	<path class="st3" d="M286.63,166.08c-0.53,0-1.05,0-1.57,0.01c-2.73,0.02-5.57,0.04-6.36-0.75c-0.62-0.62-2.66-3.59-2.66-15.86
		V92.33h10.58c3.98,0,7.21-3.23,7.21-7.21s-3.23-7.21-7.21-7.21h-10.58v-31c0-3.98-3.71-7.21-7.69-7.21c-3.98,0-7.21,3.23-7.21,7.21
		v102.56c0,13.3,2.13,21.35,6.92,26.1c4.6,4.56,10.8,4.94,15.68,4.94c0.48,0,0.96,0,1.43-0.01c0.48,0,0.97-0.01,1.46-0.01
		c3.98,0,7.21-3.23,7.21-7.21C293.84,169.3,290.61,166.08,286.63,166.08z"/>
	<path class="st3" d="M364.96,179.64c-3.98,0-7.21-3.23-7.21-7.21v-63.52c0-13.61,2.21-21.88,7.16-26.8
		c5.23-5.19,12.17-5.19,17.54-5.18l0.53,0c3.98,0,7.21,3.23,7.21,7.21s-3.23,7.21-7.21,7.21l-0.55,0c-3.78-0.01-6.19,0.06-7.13,0.99
		c-0.87,0.87-2.91,4.22-2.91,16.57v63.52C372.41,176.41,368.94,179.64,364.96,179.64z"/>
	<path class="st3" d="M482.95,126.06l16.47-38.81c1.56-3.66-0.15-7.9-3.82-9.45c-3.67-1.56-7.9,0.15-9.45,3.82l-16.72,39.4V46.77
		c0-4.13-3.35-7.47-7.47-7.47c-4.13,0-7.47,3.35-7.47,7.47v125.2c0,4.13,3.35,7.47,7.47,7.47c4.13,0,7.47-3.35,7.47-7.47v-40.45
		v-0.45l16.62,43.8c1.09,2.88,3.83,4.65,6.74,4.65c0.85,0,1.71-0.15,2.56-0.47c3.72-1.41,5.59-5.57,4.18-9.3L482.95,126.06z"/>
</g>
</svg>
