<?xml version="1.0" encoding="utf-8"?>
<!-- Generator: Adobe Illustrator 26.0.2, SVG Export Plug-In . SVG Version: 6.00 Build 0)  -->
<svg version="1.1" id="Ebene_1" xmlns="http://www.w3.org/2000/svg" xmlns:xlink="http://www.w3.org/1999/xlink" x="0px" y="0px"
	 viewBox="0 0 500 212" style="enable-background:new 0 0 500 212;" xml:space="preserve">
<style type="text/css">
	.st0{fill:#71C0E9;}
	.st1{fill:#36A9E1;}
	.st2{fill:#FFFFFF;}
</style>
<path class="st0" d="M106,0C47.5,0,0,47.5,0,106s47.5,106,106,106s106-47.6,106-106S164.4,0,106,0z"/>
<circle class="st1" cx="106" cy="106" r="90.9"/>
<path class="st2" d="M106,15.1c-50.1,0-90.9,40.8-90.9,90.9s40.8,90.9,90.9,90.9c4.1,0,7.5-3.3,7.5-7.5V60.2
	c22.1,3.6,39,22.8,39,45.8c0,4.1,3.3,7.5,7.5,7.5c4.1,0,7.5-3.3,7.5-7.5c0-33.8-27.5-61.4-61.4-61.4c-33.8,0-61.4,27.5-61.4,61.4
	c0,4.1,3.3,7.5,7.5,7.5s7.5-3.3,7.5-7.5c0-23.1,16.9-42.3,39-45.8v121.5C60.1,177.8,30,145.4,30,106c0-41.9,34.1-76,76-76
	s76,34.1,76,76c0,4.1,3.3,7.5,7.5,7.5s7.5-3.3,7.5-7.5C196.9,55.9,156.1,15.1,106,15.1z"/>
<g>
	<path class="st2" d="M324.9,76.9c-2.9,0-5.6,0.6-8.2,1.5V47.2c0-4.1-3.4-7.5-7.5-7.5c-4.1,0-7.5,3.3-7.5,7.5v125.2
		c0,4.1,3.4,7.5,7.5,7.5c4.1,0,7.5-3.4,7.5-7.5V100c0-4.5,3.7-8.2,8.2-8.2c4.5,0,8.2,3.7,8.2,8.2v72.4c0,4.1,3.4,7.5,7.5,7.5
		c4.1,0,7.5-3.4,7.5-7.5V100C348.1,87.3,337.7,76.9,324.9,76.9z"/>
	<path class="st2" d="M436.9,76.9c-4.1,0-7.5,3.3-7.5,7.5v72.4c0,4.5-3.7,8.2-8.2,8.2s-8.2-3.7-8.2-8.2V84.3c0-4.1-3.4-7.5-7.5-7.5
		c-4.1,0-7.5,3.3-7.5,7.5v72.4c0,12.8,10.4,23.1,23.1,23.1s23.1-10.4,23.1-23.1V84.3C444.4,80.2,441,76.9,436.9,76.9z"/>
	<path class="st2" d="M470,127"/>
	<path class="st2" d="M286.6,166.1c-0.5,0-1,0-1.6,0c-2.7,0-5.6,0-6.4-0.8c-0.6-0.6-2.7-3.6-2.7-15.9V92.3h10.6c4,0,7.2-3.2,7.2-7.2
		s-3.2-7.2-7.2-7.2H276v-31c0-4-3.7-7.2-7.7-7.2s-7.2,3.2-7.2,7.2v102.6c0,13.3,2.1,21.4,6.9,26.1c4.6,4.6,10.8,4.9,15.7,4.9
		c0.5,0,1,0,1.4,0c0.5,0,1,0,1.5,0c4,0,7.2-3.2,7.2-7.2S290.6,166.1,286.6,166.1z"/>
	<path class="st2" d="M365,179.6c-4,0-7.2-3.2-7.2-7.2v-63.5c0-13.6,2.2-21.9,7.2-26.8c5.2-5.2,12.2-5.2,17.5-5.2h0.5
		c4,0,7.2,3.2,7.2,7.2s-3.2,7.2-7.2,7.2h-0.5c-3.8,0-6.2,0.1-7.1,1c-0.9,0.9-2.9,4.2-2.9,16.6v63.5
		C372.4,176.4,368.9,179.6,365,179.6z"/>
	<path class="st2" d="M483,126.1l16.5-38.8c1.6-3.7-0.1-7.9-3.8-9.4c-3.7-1.6-7.9,0.2-9.5,3.8L469.4,121V46.8c0-4.1-3.4-7.5-7.5-7.5
		c-4.1,0-7.5,3.3-7.5,7.5V172c0,4.1,3.4,7.5,7.5,7.5c4.1,0,7.5-3.4,7.5-7.5v-40.4v-0.4l16.6,43.8c1.1,2.9,3.8,4.6,6.7,4.6
		c0.9,0,1.7-0.1,2.6-0.5c3.7-1.4,5.6-5.6,4.2-9.3L483,126.1z"/>
</g>
</svg>
